<?xml version="1.0" encoding="utf-8"?>
<!-- Generator: Adobe Illustrator 25.0.1, SVG Export Plug-In . SVG Version: 6.00 Build 0)  -->
<svg version="1.1" id="Layer_1" xmlns="http://www.w3.org/2000/svg" xmlns:xlink="http://www.w3.org/1999/xlink" x="0px" y="0px"
	 viewBox="0 0 1920 1080" style="enable-background:new 0 0 1920 1080;" xml:space="preserve">
<style type="text/css">
	.st0{fill:#3E0832;}
	.st1{fill:#4D023D;}
</style>
<path class="st0" d="M-204.26,648.27c15.25-15.92,44.02-29.33,73.52-37.39c57.52-15.69,154.34-20.68,190.26,15.76
	c32.41,32.87,19.98,71.87,7.21,106.59c-11.44,31.34-59.68,93.61,7.19,116.33c56.03,19.05,137.1-12.93,187.21-25.13
	c108.31-26.36,237.77,2.96,274.32,63.82c23.78,39.6-21.62,96.91,79.07,110.8c143.3,19.77,127.74,80.94,127.74,80.94h-946.51V648.27z
	"/>
<path class="st1" d="M0,784.7c9.99-10.89,28.82-20.06,48.13-25.57c37.66-10.73,101.04-14.15,124.56,10.78
	c21.22,22.48,13.08,49.16,4.72,72.91c-7.49,21.43-39.07,64.03,4.71,79.57c36.69,13.03,89.76-8.85,122.57-17.19
	c70.91-18.03,155.67,2.03,179.6,43.65c15.57,27.09-14.15,66.28,51.77,75.78c93.82,13.52,83.63,55.36,83.63,55.36H0V784.7z"/>
<path class="st0" d="M2064.97,574.79c-23.08-16.75-46.5-173.47-82.41-175.08c-70.03-3.11-0.62,10.74-26.59,71.45
	c-244.44-37.14-292.29,112.71-264.74,155.72c24.76,38.84,113.41,105.88,47.74,157.75c-55.02,43.48-131.7,57.67-192.13,56.96
	c-130.63-1.54-138.93,153.24-310.34,158.38c-239.29-8.54-192.7,80.31-299.39,130.89c-151.84,71.98,206.48,215.97,206.48,215.97
	l924.53-412.74L2064.97,574.79z"/>
<path class="st1" d="M2250.22,598.2c-20.89-23.69-30.49-211.23-65.01-219.48c-67.31-16.06-1.49,12.46-31.57,78.89
	c-232.8-86.81-291.4,80.05-268.38,135.26c20.67,49.84,100.65,144.01,32.99,193.06c-56.7,41.12-131.87,44.13-190.12,32.57
	c-125.92-24.97-146.77,154.67-312.59,130.29c-230.19-52.43-192.6,59.8-299.74,100.06c-152.48,57.3,181.33,289.33,181.33,289.33
	l926.32-318.99L2250.22,598.2z"/>
</svg>
