<svg width="117" height="116" viewBox="0 0 117 116" fill="none" xmlns="http://www.w3.org/2000/svg">
<g filter="url(#filter0_di_55_982)">
<circle cx="56.249" cy="56" r="54" fill="#FF8580" fill-opacity="0.2" shape-rendering="smooth"/>
<circle cx="56.249" cy="56" r="53" stroke="#FED5CF" stroke-width="2" shape-rendering="smooth"/>
</g>
<path d="M56.2311 93.3255L29.8131 65.8149L29.8302 65.7972L29.1643 65.1038L26.728 62.5667C19.4214 54.958 19.4214 42.6057 26.7279 34.997C34.0126 27.4111 45.8058 27.4111 53.0904 34.997L55.5268 37.5341L56.248 38.2852L56.9693 37.5341L59.4057 34.997C66.6903 27.4111 78.4835 27.4111 85.7681 34.997C93.0747 42.6057 93.0747 54.958 85.7681 62.5667L83.3318 65.1038L82.666 65.7972L82.683 65.8149L56.265 93.3255L56.248 93.3078L56.2311 93.3255Z" fill="#F4CAC6" stroke="#64163C" stroke-width="2"/>
<defs>
<filter id="filter0_di_55_982" x="0.249023" y="0" width="116" height="116" filterUnits="userSpaceOnUse" color-interpolation-filters="sRGB">
<feFlood flood-opacity="0" result="BackgroundImageFix"/>
<feColorMatrix in="SourceAlpha" type="matrix" values="0 0 0 0 0 0 0 0 0 0 0 0 0 0 0 0 0 0 127 0" result="hardAlpha"/>
<feOffset dx="2" dy="2"/>
<feGaussianBlur stdDeviation="2"/>
<feComposite in2="hardAlpha" operator="out"/>
<feColorMatrix type="matrix" values="0 0 0 0 0.239216 0 0 0 0 0.231373 0 0 0 0 0.341176 0 0 0 0.3 0"/>
<feBlend mode="multiply" in2="BackgroundImageFix" result="effect1_dropShadow_55_982"/>
<feBlend mode="normal" in="SourceGraphic" in2="effect1_dropShadow_55_982" result="shape"/>
<feColorMatrix in="SourceAlpha" type="matrix" values="0 0 0 0 0 0 0 0 0 0 0 0 0 0 0 0 0 0 127 0" result="hardAlpha"/>
<feMorphology radius="2" operator="erode" in="SourceAlpha" result="effect2_innerShadow_55_982"/>
<feOffset/>
<feGaussianBlur stdDeviation="2"/>
<feComposite in2="hardAlpha" operator="arithmetic" k2="-1" k3="1"/>
<feColorMatrix type="matrix" values="0 0 0 0 1 0 0 0 0 0.392157 0 0 0 0 0.447059 0 0 0 0.2 0"/>
<feBlend mode="overlay" in2="shape" result="effect2_innerShadow_55_982"/>
</filter>
</defs>
</svg>
