<svg width="69" height="68" viewBox="0 0 69 68" fill="none" xmlns="http://www.w3.org/2000/svg">
<g filter="url(#filter0_d_102_69)">
<path fill-rule="evenodd" clip-rule="evenodd" d="M32.6938 62C49.2624 62 62.6938 48.5685 62.6938 32C62.6938 15.4315 49.2624 2 32.6938 2C16.1253 2 2.69385 15.4315 2.69385 32C2.69385 48.5685 16.1253 62 32.6938 62ZM15.8926 36.0331C11.6269 31.591 11.6269 24.3891 15.8926 19.947C20.1582 15.505 27.0742 15.505 31.3398 19.947L32.6934 21.3565L34.0469 19.947C38.3125 15.505 45.2285 15.505 49.4941 19.947C53.7598 24.3891 53.7598 31.591 49.4941 36.0331L48.1406 37.4426L48.1501 37.4525L32.7029 53.5386L32.6934 53.5287L32.6839 53.5386L17.2366 37.4525L17.2461 37.4426L15.8926 36.0331Z" fill="#FF6270"/>
</g>
<defs>
<filter id="filter0_d_102_69" x="0.693848" y="0" width="68" height="68" filterUnits="userSpaceOnUse" color-interpolation-filters="sRGB">
<feFlood flood-opacity="0" result="BackgroundImageFix"/>
<feColorMatrix in="SourceAlpha" type="matrix" values="0 0 0 0 0 0 0 0 0 0 0 0 0 0 0 0 0 0 127 0" result="hardAlpha"/>
<feOffset dx="2" dy="2"/>
<feGaussianBlur stdDeviation="2"/>
<feComposite in2="hardAlpha" operator="out"/>
<feColorMatrix type="matrix" values="0 0 0 0 0.14902 0 0 0 0 0.027451 0 0 0 0 0.247059 0 0 0 0.1 0"/>
<feBlend mode="multiply" in2="BackgroundImageFix" result="effect1_dropShadow_102_69"/>
<feBlend mode="normal" in="SourceGraphic" in2="effect1_dropShadow_102_69" result="shape"/>
</filter>
</defs>
</svg>
