<svg width="12" height="16" viewBox="0 0 12 16" fill="none" xmlns="http://www.w3.org/2000/svg">
<mask id="path-1-outside-1_55_976" maskUnits="userSpaceOnUse" x="0" y="0" width="12" height="16" fill="black">
<rect fill="white" width="12" height="16"/>
<path fill-rule="evenodd" clip-rule="evenodd" d="M5.81695 13.9255C8.47727 12.3198 10.6339 8.47727 10.6339 5.81695C10.6339 3.15662 8.47727 1 5.81695 1C3.15662 1 1 3.15662 1 5.81695C1 8.47727 3.15662 12.3198 5.81695 13.9255ZM5.81637 8.70706C7.41257 8.70706 8.70654 7.41309 8.70654 5.81689C8.70654 4.2207 7.41257 2.92672 5.81637 2.92672C4.22018 2.92672 2.92621 4.2207 2.92621 5.81689C2.92621 7.41309 4.22018 8.70706 5.81637 8.70706Z"/>
</mask>
<path d="M5.81695 13.9255L5.30021 14.7816L5.81695 15.0935L6.33368 14.7816L5.81695 13.9255ZM9.63389 5.81695C9.63389 6.91136 9.17689 8.36162 8.35933 9.76273C7.54592 11.1567 6.44848 12.3763 5.30021 13.0693L6.33368 14.7816C7.84573 13.869 9.15677 12.3645 10.0868 10.7707C11.0126 9.18403 11.6339 7.38286 11.6339 5.81695H9.63389ZM5.81695 2C7.92499 2 9.63389 3.7089 9.63389 5.81695H11.6339C11.6339 2.60433 9.02956 0 5.81695 0V2ZM2 5.81695C2 3.7089 3.7089 2 5.81695 2V0C2.60434 0 0 2.60433 0 5.81695H2ZM6.33368 13.0693C5.18541 12.3763 4.08797 11.1567 3.27456 9.76273C2.457 8.36162 2 6.91136 2 5.81695H0C0 7.38286 0.621305 9.18403 1.54714 10.7707C2.47712 12.3645 3.78816 13.869 5.30021 14.7816L6.33368 13.0693ZM7.70654 5.81689C7.70654 6.8608 6.86029 7.70706 5.81637 7.70706V9.70706C7.96485 9.70706 9.70654 7.96537 9.70654 5.81689H7.70654ZM5.81637 3.92672C6.86029 3.92672 7.70654 4.77298 7.70654 5.81689H9.70654C9.70654 3.66841 7.96485 1.92672 5.81637 1.92672V3.92672ZM3.92621 5.81689C3.92621 4.77298 4.77246 3.92672 5.81637 3.92672V1.92672C3.66789 1.92672 1.92621 3.66841 1.92621 5.81689H3.92621ZM5.81637 7.70706C4.77246 7.70706 3.92621 6.8608 3.92621 5.81689H1.92621C1.92621 7.96537 3.66789 9.70706 5.81637 9.70706V7.70706Z" fill="#4231B3" mask="url(#path-1-outside-1_55_976)"/>
<path d="M5.81695 13.9255L5.30021 14.7816L5.81695 15.0935L6.33368 14.7816L5.81695 13.9255ZM9.63389 5.81695C9.63389 6.91136 9.17689 8.36162 8.35933 9.76273C7.54592 11.1567 6.44848 12.3763 5.30021 13.0693L6.33368 14.7816C7.84573 13.869 9.15677 12.3645 10.0868 10.7707C11.0126 9.18403 11.6339 7.38286 11.6339 5.81695H9.63389ZM5.81695 2C7.92499 2 9.63389 3.7089 9.63389 5.81695H11.6339C11.6339 2.60433 9.02956 0 5.81695 0V2ZM2 5.81695C2 3.7089 3.7089 2 5.81695 2V0C2.60434 0 0 2.60433 0 5.81695H2ZM6.33368 13.0693C5.18541 12.3763 4.08797 11.1567 3.27456 9.76273C2.457 8.36162 2 6.91136 2 5.81695H0C0 7.38286 0.621305 9.18403 1.54714 10.7707C2.47712 12.3645 3.78816 13.869 5.30021 14.7816L6.33368 13.0693ZM7.70654 5.81689C7.70654 6.8608 6.86029 7.70706 5.81637 7.70706V9.70706C7.96485 9.70706 9.70654 7.96537 9.70654 5.81689H7.70654ZM5.81637 3.92672C6.86029 3.92672 7.70654 4.77298 7.70654 5.81689H9.70654C9.70654 3.66841 7.96485 1.92672 5.81637 1.92672V3.92672ZM3.92621 5.81689C3.92621 4.77298 4.77246 3.92672 5.81637 3.92672V1.92672C3.66789 1.92672 1.92621 3.66841 1.92621 5.81689H3.92621ZM5.81637 7.70706C4.77246 7.70706 3.92621 6.8608 3.92621 5.81689H1.92621C1.92621 7.96537 3.66789 9.70706 5.81637 9.70706V7.70706Z" fill="black" fill-opacity="0.2" mask="url(#path-1-outside-1_55_976)"/>
</svg>
