<svg width="715" height="645" viewBox="0 0 715 645" fill="none" xmlns="http://www.w3.org/2000/svg">
<path d="M357.547 90.2869C418.957 4.22687 538.547 -15.7631 624.547 45.6469C646.424 61.215 664.771 81.2242 678.387 104.367C721.567 177.847 709.237 271.367 649.927 332.547L357.547 634.287L65.1769 332.517C5.86691 271.317 -6.4631 177.817 36.7169 104.337C50.3332 81.1942 68.6795 61.185 90.5569 45.6169C176.627 -15.7931 296.177 4.19687 357.557 90.2569L606.257 377.607" stroke="#272726" stroke-width="20" stroke-linecap="round" stroke-linejoin="round"/>
<path d="M397.041 288.711L319.241 201.591" stroke="#272726" stroke-width="20" stroke-linecap="round" stroke-linejoin="round"/>
<path d="M314.581 284.051L401.701 206.251" stroke="#272726" stroke-width="20" stroke-linecap="round" stroke-linejoin="round"/>
<path d="M347.205 393.508C353.265 399.568 363.09 399.568 369.15 393.508C375.21 387.448 375.21 377.623 369.15 371.564C363.09 365.504 353.265 365.504 347.205 371.563C341.145 377.623 341.145 387.448 347.205 393.508Z" fill="#272726"/>
<path d="M347.254 486.619C353.314 492.679 363.139 492.679 369.199 486.619C375.258 480.559 375.258 470.734 369.199 464.674C363.139 458.614 353.314 458.614 347.254 464.674C341.194 470.734 341.194 480.559 347.254 486.619Z" fill="#272726"/>
<path d="M393.791 440.088C399.851 446.148 409.676 446.148 415.736 440.088C421.796 434.028 421.796 424.203 415.736 418.143C409.676 412.083 399.851 412.083 393.791 418.143C387.731 424.203 387.731 434.028 393.791 440.088Z" fill="#272726"/>
<path d="M300.674 440.039C306.733 446.099 316.559 446.099 322.618 440.039C328.678 433.979 328.678 424.154 322.618 418.094C316.559 412.034 306.733 412.034 300.674 418.094C294.614 424.154 294.614 433.979 300.674 440.039Z" fill="#272726"/>
<circle cx="558.878" cy="172.423" r="41.5" transform="rotate(45 558.878 172.423)" stroke="#272726" stroke-width="20"/>
<circle cx="149.864" cy="172.423" r="41.5" transform="rotate(45 149.864 172.423)" stroke="#272726" stroke-width="20"/>
<path d="M150.5 269C194.645 344.667 256.449 496 150.5 496C44.5509 496 106.355 344.667 150.5 269Z" fill="white" stroke="black" stroke-width="17"/>
</svg>
