<svg xmlns="http://www.w3.org/2000/svg" viewBox="0 0 560.72 560.72"><defs><style>.cls-1{fill:#e6eaf3;}</style></defs><g id="Laag_2" data-name="Laag 2"><g id="Laag_1-2" data-name="Laag 1"><path class="cls-1" d="M401,6.22a20.05,20.05,0,0,1,29,0L554.5,130.67a20,20,0,0,1,0,29L201.91,512.3c-2.07,2.07-6.22,4.15-10.37,6.22L25.61,560c-14.52,4.15-29-10.37-24.89-24.89L42.2,369.18c0-4.15,2.07-6.22,6.22-10.37ZM332.57,132.74l-251,251L50.5,510.22,177,479.11l251-251Zm83-83L361.61,103.7,457,199.11l53.92-53.93Z"/></g></g></svg>