<svg xmlns="http://www.w3.org/2000/svg" height="800" width="1200" fill="#fff" viewBox="-5.85129 -7.5 50.71118 45"><path d="M23.4625 7.3448v9.3744c3.9622 1.9047 7.0802-.0024 7.0802-5.0338 0-5.1618-1.8255-7.453-7.2077-9.2933C21.219 1.6813 16.7971.5 14.0184 0v27.9903L20.935 30V6.5244c0-1.1003.493-1.8349 1.2876-1.5812 1.0372.2878 1.2398 1.3005 1.2398 2.4016zm12.6239 12.323c-2.6601-1.0049-6.0495-1.35-8.8164-1.0455-2.7685.3053-4.736.9985-4.736.9985l-.3926.132v3.8048l6.8104-2.3898c1.1617-.415 2.866-.504 3.8074-.1963.9415.3077.7644.8927-.3957 1.3069l-10.2221 3.629v3.6657l13.8906-4.971s1.867-.683 2.6297-1.6408c.7613-.9587.423-2.3492-2.5753-3.2935zM.7316 21.8253c-1.4026 1.0366-.8492 2.7016 2.1878 3.699 3.3015 1.0843 6.4676 1.744 9.4825 1.2132.1956-.0347.4097-.0717.6007-.108v-3.4091l-2.802.8284c-1.16.4158-2.8659.5025-3.8074.1956-.9414-.3077-.7642-.8927.3959-1.3069l6.2135-2.1137v-3.8101L4.2343 20.147s-2.2054.7202-3.5027 1.6782z"/></svg>