<svg xmlns="http://www.w3.org/2000/svg" viewBox="0 0 236.05 235.97"><defs><style>.cls-1{fill:#fff;}</style></defs><g id="Laag_2" data-name="Laag 2"><g id="svg2"><path class="cls-1" d="M227.4,137.23A111.09,111.09,0,0,0,98.76,8.59C77.11-4,48.36-2.7,28,12A66.1,66.1,0,0,0,8.64,98.72a111.09,111.09,0,0,0,59.3,118.36,111.89,111.89,0,0,0,69.34,10.28c21,12.18,48.79,11.41,69-2.17a66.1,66.1,0,0,0,21.13-88ZM202.15,207.1a49.13,49.13,0,0,1-44.7,10.37c-6.15-1.49-11.66-4.68-17.08-7.83-18.58,4.07-38.36,3.17-56.13-3.82a94.73,94.73,0,0,1-55.83-59.07c-5.43-16.45-5.7-34.27-2-51.13C20.71,86.78,16.7,76.6,16.9,66A49.17,49.17,0,0,1,81.65,19.39c5,1.59,9.5,4.34,14,6.93C113.31,22.47,132,23,149.1,29.14a94.75,94.75,0,0,1,58.27,59.25c5.66,16.66,6,34.8,2.31,51.93,4.4,7.21,8.19,15,9.08,23.51A49.18,49.18,0,0,1,202.15,207.1Z"/><path id="path10" class="cls-1" d="M103.44,50.75c16-2.42,32.84,0,47.11,7.77,6.24,3.46,12.28,8.14,15.18,14.86,1.89,4.42,2.1,10.19-1.39,13.89a15.07,15.07,0,0,1-15,3.43c-5.87-2.46-8.79-8.61-13.77-12.27C129.29,73.27,120.86,71.88,113,72c-5.77.25-12,1.56-16.16,5.8C92.92,82,91.48,89.08,95.27,93.75c3.58,4.13,9.11,5.67,14.18,7.08,9.67,2.42,19.45,4.37,29.16,6.66,10.1,2.31,20.3,6.73,27,15,11.5,14.9,8.91,38.53-5.39,50.73-11.44,10.13-27.35,12.93-42.17,13-15.82-.23-32.73-3.47-44.89-14.29-6.1-5.5-11.23-13.8-9.39-22.29,2-8.44,13.6-11.64,20.17-6.45,5,4,7.74,10.16,12.58,14.37,5.79,5.31,13.86,7.42,21.58,7.23,7.57.2,15.61-2.12,20.8-7.88,3.53-3.89,5.4-9.81,3.11-14.79-1.88-4.68-6.71-7.23-11.33-8.49-8.52-2.23-17.1-4.26-25.62-6.51-9.36-2.29-19.09-4.38-27.14-10A29.2,29.2,0,0,1,65.32,99c-2.57-11.64-.73-25.07,7.73-34C80.79,56.47,92.27,52.47,103.44,50.75Z"/></g></g></svg>