<svg xmlns="http://www.w3.org/2000/svg" viewBox="0 0 308 308"><defs><style>.cls-1{fill:#fff;}</style></defs><g id="Laag_2" data-name="Laag 2"><g id="Layer_1" data-name="Layer 1"><path class="cls-1" d="M227.9,177c-.6-.29-23.05-11.34-27-12.78a15.4,15.4,0,0,0-5.23-1.16c-3,0-5.58,1.51-7.56,4.48-2.25,3.34-9,11.27-11.13,13.64-.28.32-.65.69-.88.69s-3.67-1.43-4.72-1.89C147.25,169.5,129,144.34,126.46,140.1a2.71,2.71,0,0,1-.38-.89,7.12,7.12,0,0,1,1.32-1.55c1.22-1.21,2.55-2.81,3.83-4.35.61-.73,1.21-1.47,1.81-2.16a24,24,0,0,0,3.65-5.79l.5-1a10.47,10.47,0,0,0-.3-9.85c-.53-1.06-10-24-11-26.35-2.43-5.8-5.63-8.5-10.08-8.5-.41,0,0,0-1.73.07-2.11.09-13.6,1.6-18.68,4.8C90,87.92,80.89,98.74,80.89,117.77c0,17.13,10.87,33.3,15.54,39.45.11.16.33.47.63.93,17.88,26.1,40.16,45.44,62.75,54.47,21.74,8.68,32,9.69,37.89,9.69h0a59.45,59.45,0,0,0,6.17-.37l1.1-.1c7.51-.67,24-9.22,27.78-19.66,2.95-8.22,3.73-17.2,1.77-20.46C233.17,179.51,230.84,178.39,227.9,177Z"/><path class="cls-1" d="M156.73,0C73.32,0,5.45,67.35,5.45,150.14a149.09,149.09,0,0,0,20.74,75.93l-26,76.65A4,4,0,0,0,4,308a3.92,3.92,0,0,0,1.21-.19l79.92-25.39a152.36,152.36,0,0,0,71.6,17.85c83.41,0,151.27-67.35,151.27-150.13S240.14,0,156.73,0Zm0,269A119.82,119.82,0,0,1,90.8,249.34a4,4,0,0,0-2.2-.66,3.92,3.92,0,0,0-1.21.19l-40,12.73,12.92-38.13a4,4,0,0,0-.56-3.65,117.25,117.25,0,0,1-22.81-69.68c0-65.54,53.75-118.86,119.82-118.86S276.54,84.6,276.54,150.14,222.8,269,156.73,269Z"/></g></g></svg>