<svg xmlns="http://www.w3.org/2000/svg" viewBox="0 0 372.37 372.57"><defs><style>.cls-1{fill:#fff;}</style></defs><g id="Laag_2" data-name="Laag 2"><g id="svg4136"><g id="g4146"><path id="path4148" class="cls-1" d="M167.62,371.81A185.75,185.75,0,0,1,85,342.48C64,328.84,59.32,323.24,59.32,312.05c0-22.48,24.71-61.84,67-106.72,24-25.48,57.46-55.36,61.07-54.55,7,1.57,63.25,56.41,84.3,82.23,33.28,40.82,48.58,74.24,40.81,89.14-5.91,11.33-42.57,33.47-69.51,42-22.2,7-51.36,10-75.37,7.68ZM31.09,288.68C13.72,262,4.94,235.79.7,197.85c-1.39-12.53-.89-19.7,3.18-45.42C9,120.38,27.21,83.3,49.15,60.48c9.34-9.72,10.18-10,21.56-6.12,13.83,4.65,28.6,14.85,51.5,35.56L135.57,102l-7.29,9C94.4,152.58,58.65,211.57,45.17,248.06c-7.33,19.84-10.28,39.75-7.13,48C40.17,301.7,38.22,299.61,31.09,288.68ZM336,293.21c1.72-8.37-.45-23.76-5.54-39.28-11-33.6-47.84-96.12-81.65-138.63l-10.64-13.38,11.51-10.57c15-13.81,25.48-22.08,36.74-29.1,8.89-5.54,21.59-10.44,27.05-10.44,3.37,0,15.22,12.3,24.79,25.72,14.82,20.79,25.72,46,31.24,72.22,3.57,16.95,3.86,53.23.57,70.14a221.36,221.36,0,0,1-14,44.08c-4.17,9.15-14.54,26.91-19.08,32.69-2.34,3-2.34,3-1-3.45ZM170.69,45.46c-15.6-7.92-39.67-16.42-53-18.71a96.78,96.78,0,0,0-17.67-1c-11,.56-10.47,0,7.12-8.33A181.21,181.21,0,0,1,150.57,3c18.64-3.91,53.67-3.95,72-.09C242.39,7,265.71,15.72,278.85,23.81l3.91,2.41-9-.46c-17.81-.9-43.77,6.3-71.63,19.86-8.41,4.09-15.72,7.36-16.25,7.26S178.53,49.44,170.69,45.46Z"/></g></g></g></svg>